<svg xmlns="http://www.w3.org/2000/svg" xmlns:xlink="http://www.w3.org/1999/xlink" width="500" zoomAndPan="magnify" viewBox="0 0 375 374.999991" height="500" preserveAspectRatio="xMidYMid meet" version="1.2"><defs><clipPath id="330e84fdcc"><path d="M 236.457031 269.898438 L 356.277344 269.898438 L 356.277344 288.066406 L 236.457031 288.066406 Z M 236.457031 269.898438 "/></clipPath></defs><g id="16a7b49981"><g style="fill:#000000;fill-opacity:1;"><g transform="translate(14.957042, 257.908811)"><path style="stroke:none" d="M 97.78125 -18.375 L 95.15625 -18.375 C 91.65625 -11.082031 86.804688 -5.6875 80.609375 -2.1875 C 74.410156 1.3125 67.882812 3.0625 61.03125 3.0625 C 53.882812 3.0625 47.25 1.859375 41.125 -0.546875 C 35 -2.953125 29.640625 -6.523438 25.046875 -11.265625 C 20.453125 -16.003906 16.84375 -21.800781 14.21875 -28.65625 C 11.59375 -35.507812 10.28125 -43.457031 10.28125 -52.5 L 10.28125 -56 C 10.28125 -64.894531 11.59375 -72.769531 14.21875 -79.625 C 16.84375 -86.476562 20.453125 -92.273438 25.046875 -97.015625 C 29.640625 -101.753906 35 -105.359375 41.125 -107.828125 C 47.25 -110.304688 53.738281 -111.546875 60.59375 -111.546875 C 68.03125 -111.546875 74.773438 -109.90625 80.828125 -106.625 C 86.878906 -103.351562 91.65625 -98.289062 95.15625 -91.4375 L 97.78125 -91.4375 L 97.78125 -108.5 L 114.828125 -108.5 L 114.828125 -22.3125 C 114.828125 -17.9375 116.796875 -15.75 120.734375 -15.75 L 126.203125 -15.75 L 126.203125 0 L 114.609375 0 C 109.660156 0 105.617188 -1.601562 102.484375 -4.8125 C 99.347656 -8.019531 97.78125 -12.101562 97.78125 -17.0625 Z M 62.78125 -13.125 C 67.882812 -13.125 72.585938 -14.070312 76.890625 -15.96875 C 81.191406 -17.863281 84.875 -20.5625 87.9375 -24.0625 C 91 -27.5625 93.40625 -31.753906 95.15625 -36.640625 C 96.90625 -41.523438 97.78125 -46.957031 97.78125 -52.9375 L 97.78125 -55.5625 C 97.78125 -61.394531 96.90625 -66.753906 95.15625 -71.640625 C 93.40625 -76.523438 90.960938 -80.71875 87.828125 -84.21875 C 84.691406 -87.71875 80.972656 -90.453125 76.671875 -92.421875 C 72.367188 -94.390625 67.738281 -95.375 62.78125 -95.375 C 57.675781 -95.375 53.007812 -94.425781 48.78125 -92.53125 C 44.550781 -90.632812 40.867188 -87.972656 37.734375 -84.546875 C 34.597656 -81.117188 32.15625 -76.960938 30.40625 -72.078125 C 28.65625 -67.191406 27.78125 -61.832031 27.78125 -56 L 27.78125 -52.5 C 27.78125 -40.101562 31.023438 -30.441406 37.515625 -23.515625 C 44.003906 -16.585938 52.425781 -13.125 62.78125 -13.125 Z M 62.78125 -13.125 "/></g></g><g style="fill:#000000;fill-opacity:1;"><g transform="translate(125.85263, 257.908811)"><path style="stroke:none" d="M 15.3125 -108.5 L 49.4375 -108.5 L 49.4375 -153.109375 L 66.5 -153.109375 L 66.5 -108.5 L 108.5 -108.5 L 108.5 -92.75 L 66.5 -92.75 L 66.5 -22.3125 C 66.5 -17.9375 68.46875 -15.75 72.40625 -15.75 L 103.25 -15.75 L 103.25 0 L 66.28125 0 C 61.320312 0 57.273438 -1.601562 54.140625 -4.8125 C 51.003906 -8.019531 49.4375 -12.101562 49.4375 -17.0625 L 49.4375 -92.75 L 15.3125 -92.75 Z M 15.3125 -108.5 "/></g></g><g clip-rule="nonzero" clip-path="url(#330e84fdcc)"><path style=" stroke:none;fill-rule:nonzero;fill:#1862e6;fill-opacity:1;" d="M 236.457031 269.898438 L 356.253906 269.898438 L 356.253906 288.066406 L 236.457031 288.066406 Z M 236.457031 269.898438 "/></g></g></svg>