<svg xmlns="http://www.w3.org/2000/svg" xmlns:xlink="http://www.w3.org/1999/xlink" width="500" zoomAndPan="magnify" viewBox="0 0 375 374.999991" height="500" preserveAspectRatio="xMidYMid meet" version="1.2"><defs><clipPath id="586f139dc2"><path d="M 236.457031 269.898438 L 356.277344 269.898438 L 356.277344 297.210938 L 236.457031 297.210938 Z M 236.457031 269.898438 "/></clipPath></defs><g id="0239ed81fb"><g style="fill:#000000;fill-opacity:1;"><g transform="translate(14.957042, 257.908804)"><path style="stroke:none" d="M 87.28125 -15.75 C 84.363281 -8.894531 80.28125 -4.046875 75.03125 -1.203125 C 69.78125 1.640625 63.65625 3.0625 56.65625 3.0625 C 50.09375 3.0625 43.929688 1.820312 38.171875 -0.65625 C 32.410156 -3.132812 27.34375 -6.78125 22.96875 -11.59375 C 18.59375 -16.40625 15.128906 -22.238281 12.578125 -29.09375 C 10.023438 -35.945312 8.75 -43.75 8.75 -52.5 L 8.75 -56 C 8.75 -64.601562 9.988281 -72.332031 12.46875 -79.1875 C 14.945312 -86.039062 18.300781 -91.875 22.53125 -96.6875 C 26.757812 -101.5 31.679688 -105.175781 37.296875 -107.71875 C 42.910156 -110.269531 48.925781 -111.546875 55.34375 -111.546875 C 63.070312 -111.546875 69.304688 -110.234375 74.046875 -107.609375 C 78.785156 -104.992188 82.539062 -100.914062 85.3125 -95.375 L 89.25 -95.375 L 89.25 -108.5 L 116.796875 -108.5 L 116.796875 -32.8125 C 116.796875 -28.4375 118.765625 -26.25 122.703125 -26.25 L 126.859375 -26.25 L 126.859375 0 L 108.0625 0 C 103.101562 0 99.054688 -1.457031 95.921875 -4.375 C 92.785156 -7.289062 91.21875 -11.082031 91.21875 -15.75 Z M 62.78125 -23.1875 C 70.800781 -23.1875 77.21875 -25.847656 82.03125 -31.171875 C 86.84375 -36.492188 89.25 -43.75 89.25 -52.9375 L 89.25 -55.5625 C 89.25 -64.75 86.84375 -72.003906 82.03125 -77.328125 C 77.21875 -82.648438 70.800781 -85.3125 62.78125 -85.3125 C 54.757812 -85.3125 48.34375 -82.648438 43.53125 -77.328125 C 38.71875 -72.003906 36.3125 -64.75 36.3125 -55.5625 L 36.3125 -52.9375 C 36.3125 -43.75 38.71875 -36.492188 43.53125 -31.171875 C 48.34375 -25.847656 54.757812 -23.1875 62.78125 -23.1875 Z M 62.78125 -23.1875 "/></g></g><g style="fill:#000000;fill-opacity:1;"><g transform="translate(125.85263, 257.908804)"><path style="stroke:none" d="M 14 -108.5 L 46.15625 -108.5 L 46.15625 -153.109375 L 73.71875 -153.109375 L 73.71875 -108.5 L 112.859375 -108.5 L 112.859375 -82.25 L 73.71875 -82.25 L 73.71875 -32.8125 C 73.71875 -28.4375 75.6875 -26.25 79.625 -26.25 L 108.921875 -26.25 L 108.921875 0 L 63 0 C 58.039062 0 53.992188 -1.601562 50.859375 -4.8125 C 47.722656 -8.019531 46.15625 -12.101562 46.15625 -17.0625 L 46.15625 -82.25 L 14 -82.25 Z M 14 -108.5 "/></g></g><g clip-rule="nonzero" clip-path="url(#586f139dc2)"><path style=" stroke:none;fill-rule:nonzero;fill:#1862e6;fill-opacity:1;" d="M 236.457031 269.898438 L 356.265625 269.898438 L 356.265625 297.210938 L 236.457031 297.210938 Z M 236.457031 269.898438 "/></g></g></svg>